<svg id="Layer_1" enable-background="new 0 0 497 497" height="512" viewBox="0 0 497 497" width="512" xmlns="http://www.w3.org/2000/svg"><g><path d="m158.656 338.065c-7.232-.461-14.517-1.391-21.82-2.815-91.705-17.876-151.555-106.709-133.679-198.414s106.709-151.555 198.414-133.679c77.247 15.058 131.891 80.461 136.518 155.519z" fill="#e2894c"/><g><path d="m161.571 3.157c77.246 15.058 131.891 80.461 136.518 155.519l-.016 1.942c-.122 15.143-2.129 29.831-5.785 43.848l45.801-45.79c-4.627-75.058-59.272-140.462-136.518-155.519-17.77-3.464-35.43-3.997-52.489-1.958 4.153.496 8.317 1.145 12.489 1.958z" fill="#d47c3f"/></g><path d="m446.335 265.853c-1.487-1.487-2.806-3.076-3.978-4.737-13.091 5.548-28.798 2.995-39.469-7.676-10.672-10.671-13.224-26.379-7.676-39.469-1.661-1.172-3.251-2.491-4.737-3.978-11.316-11.316-13.506-28.295-6.584-41.812-17.546-6.161-36.41-9.524-56.062-9.524-93.431 0-169.172 75.741-169.172 169.172s75.74 169.171 169.171 169.171 169.172-75.741 169.172-169.172c0-19.333-3.252-37.905-9.223-55.209-13.455 6.696-30.229 4.447-41.442-6.766z" fill="#f0aa7d"/><path d="m487.777 272.62c-13.455 6.695-30.228 4.447-41.442-6.767-1.487-1.487-2.806-3.076-3.978-4.737-13.091 5.548-28.798 2.995-39.469-7.676s-13.224-26.379-7.676-39.469c-1.661-1.172-3.251-2.491-4.737-3.978-11.316-11.316-13.506-28.295-6.584-41.812-17.546-6.161-36.41-9.524-56.062-9.524-6.769 0-13.441.41-20.002 1.183 12.487 1.475 24.56 4.302 36.063 8.341-6.922 13.516-4.732 30.495 6.584 41.812 1.487 1.487 3.076 2.806 4.737 3.978-5.548 13.091-2.995 28.798 7.676 39.469 10.672 10.672 26.379 13.224 39.469 7.676 1.172 1.661 2.491 3.251 3.978 4.737 11.213 11.213 27.987 13.462 41.442 6.767 5.972 17.304 9.223 35.876 9.223 55.209 0 86.663-65.169 158.093-149.172 167.989 6.56.773 13.232 1.182 20 1.182 93.432 0 169.173-75.741 169.173-169.172 0-19.333-3.252-37.904-9.223-55.208z" fill="#e89d6b"/><g fill="#9b4f1d"><g><circle cx="176.398" cy="151.462" r="17.738"/><circle cx="255.934" cy="98.031" r="17.738"/><circle cx="78.308" cy="105.104" r="17.738"/><circle cx="78.308" cy="230.443" r="17.738"/></g><path d="m211.703 315.428c0-14.643 11.87-26.513 26.513-26.513s26.513 11.87 26.513 26.513c0 14.642-11.87 26.513-26.513 26.513s-26.513-11.87-26.513-26.513zm54.868 109.994c-9.797 0-17.738-7.942-17.738-17.738 0-9.797 7.942-17.738 17.738-17.738 9.797 0 17.738 7.942 17.738 17.738.001 9.796-7.941 17.738-17.738 17.738zm49.393-167.303c-9.797 0-17.738-7.942-17.738-17.738 0-9.797 7.942-17.738 17.738-17.738 9.797 0 17.738 7.942 17.738 17.738s-7.941 17.738-17.738 17.738zm95.408 122.735c-14.642 0-26.513-11.87-26.513-26.513s11.87-26.513 26.513-26.513 26.513 11.87 26.513 26.513-11.871 26.513-26.513 26.513z"/></g></g></svg>